<?xml version="1.0" encoding="UTF-8" standalone="no"?>
<svg
   xmlns:dc="http://purl.org/dc/elements/1.1/"
   xmlns:cc="http://creativecommons.org/ns#"
   xmlns:rdf="http://www.w3.org/1999/02/22-rdf-syntax-ns#"
   xmlns:svg="http://www.w3.org/2000/svg"
   xmlns="http://www.w3.org/2000/svg"
   id="svg5"
   xml:space="preserve"
   viewBox="0 0 1024 768"
   y="0px"
   x="0px"
   version="1.1"><metadata
     id="metadata11"><rdf:RDF><cc:Work
         rdf:about=""><dc:format>image/svg+xml</dc:format><dc:type
           rdf:resource="http://purl.org/dc/dcmitype/StillImage" /></cc:Work></rdf:RDF></metadata><defs
     id="defs9" /><g
     transform="matrix(1.41,0,0,1.41,-210.12,-157.2)"
     id="logo-group"><path
       style="opacity:0.25;fill:#d4af37;stroke-width:2.01600003"
       d="m 508.63,205.87 c -4.1306,0.008 -8.5771,0.0493 -9.8806,0.0919 -1.3047,0.0426 -3.272,0.1345 -4.3715,0.20289 -1.1007,0.0684 -2.9335,0.20176 -4.0745,0.29591 -1.1399,0.0941 -3.2081,0.2959 -4.5957,0.44835 -1.3865,0.15356 -3.2786,0.38224 -4.2034,0.50888 -0.92474,0.12667 -2.6398,0.37887 -3.811,0.56045 -1.1713,0.18271 -3.2181,0.5313 -4.5485,0.77566 -1.3305,0.24436 -3.3482,0.64227 -4.4836,0.88551 -1.1355,0.24323 -2.846,0.62657 -3.8022,0.85075 -0.955,0.22418 -2.6958,0.65909 -3.8671,0.9651 -1.1713,0.30711 -2.9367,0.78799 -3.9231,1.0682 -0.98639,0.28023 -3.0758,0.9113 -4.6439,1.4034 -1.5681,0.49207 -3.9758,1.2946 -5.3501,1.7834 -1.3742,0.48871 -3.3706,1.2229 -4.4354,1.6331 -1.0648,0.40912 -2.9446,1.159 -4.1788,1.6668 -1.233,0.50664 -3.3514,1.4191 -4.7078,2.0255 -1.3552,0.60752 -4.1036,1.9179 -6.1077,2.9121 -2.003,0.99536 -4.7021,2.3898 -5.9968,3.0992 -1.2946,0.70953 -3.2865,1.8349 -4.4275,2.4984 -1.14,0.66469 -3.0758,1.8349 -4.3009,2.6004 -1.224,0.76557 -3.2921,2.1039 -4.5957,2.9738 -1.3025,0.86982 -3.1498,2.1376 -4.1058,2.8158 -0.955,0.67814 -2.7462,1.993 -3.9792,2.9222 -1.233,0.9281 -3.1744,2.4357 -4.3154,3.3504 -1.14,0.91353 -3.0321,2.4817 -4.2034,3.4826 -1.1713,1.0021 -3.0119,2.6218 -4.0913,3.6004 -1.0783,0.97855 -3.7314,3.5476 -5.8948,5.7087 -2.1634,2.1612 -4.7235,4.8031 -5.6898,5.8712 -0.96621,1.0671 -2.5444,2.8583 -3.5072,3.9792 -0.96284,1.1209 -2.6196,3.1218 -3.6798,4.4477 -1.0615,1.3249 -2.6083,3.3179 -3.4389,4.4275 -0.83059,1.1097 -2.0648,2.7988 -2.7428,3.755 -0.67927,0.955 -1.6634,2.3674 -2.188,3.1385 -0.52569,0.77005 -1.6029,2.4099 -2.3942,3.6429 -0.79247,1.233 -2.1039,3.3514 -2.9155,4.7078 -0.81152,1.3563 -2.0086,3.4254 -2.6609,4.5979 -0.65236,1.1725 -1.7464,3.2103 -2.4313,4.5296 -0.68488,1.3182 -1.7688,3.4871 -2.4087,4.8176 -0.64004,1.3305 -1.4908,3.1508 -1.891,4.0453 -0.39904,0.89335 -1.1433,2.6083 -1.6511,3.811 -0.50888,1.2016 -1.391,3.3964 -1.9604,4.8759 -0.57053,1.4796 -1.391,3.699 -1.8237,4.9319 -0.43378,1.233 -1.1489,3.3762 -1.5883,4.7638 -0.44051,1.3865 -1.0974,3.5554 -1.4605,4.8198 -0.36316,1.2632 -0.91353,3.2808 -1.224,4.4836 -0.31049,1.2016 -0.79697,3.1946 -1.0805,4.4275 -0.2847,1.233 -0.76221,3.477 -1.0626,4.988 -0.30041,1.5098 -0.72298,3.8054 -0.93819,5.1001 -0.21521,1.2946 -0.51785,3.2361 -0.67141,4.3154 -0.15468,1.0783 -0.408,3.0456 -0.56268,4.3715 -0.1558,1.3249 -0.35869,3.2417 -0.4506,4.2594 -0.093,1.0166 -0.22081,2.5803 -0.2847,3.4748 -0.0639,0.89335 -0.16813,2.5333 -0.23091,3.6429 -0.0616,1.1097 -0.14459,4.0352 -0.18158,6.5012 -0.0426,2.7349 -0.0179,5.8387 0.0617,7.9584 0.0729,1.9111 0.20623,4.5586 0.29816,5.8847 0.0908,1.3249 0.2141,2.9389 0.27462,3.5869 0.0605,0.64676 0.21074,2.1858 0.33514,3.4187 0.1233,1.233 0.32619,3.402 0.4506,4.8198 0.12554,1.4179 0.37997,3.8133 0.56718,5.3243 0.18608,1.5098 0.46404,3.578 0.61649,4.5957 0.15132,1.0166 0.40353,2.5803 0.55821,3.4748 0.1558,0.89335 0.45957,2.5579 0.67702,3.699 0.21633,1.14 0.64564,3.2081 0.95276,4.5957 0.30712,1.3865 0.83843,3.6284 1.1814,4.9801 0.34188,1.3518 0.94603,3.597 1.3417,4.988 0.39568,1.391 1.0536,3.5891 1.4628,4.8838 0.40913,1.2946 1.1344,3.4635 1.613,4.8198 0.47751,1.3563 1.1052,3.096 1.3933,3.8671 0.28807,0.77006 0.99312,2.5613 1.5659,3.9792 0.57389,1.4179 1.521,3.6619 2.1061,4.988 0.58624,1.3249 1.6298,3.5846 2.3192,5.0194 0.69048,1.4348 1.8136,3.68 2.4952,4.988 0.68151,1.3081 1.7452,3.2865 2.3628,4.3961 0.61762,1.1097 1.7553,3.0768 2.5277,4.3715 0.77229,1.2946 1.9335,3.1857 2.5803,4.2034 0.64564,1.0166 1.6746,2.5982 2.2865,3.5129 0.61202,0.91579 1.7217,2.5299 2.4682,3.5869 0.74653,1.0581 2.114,2.9323 3.0409,4.1652 0.92586,1.233 2.4928,3.2506 3.4804,4.4836 0.98862,1.233 2.5522,3.124 3.477,4.2034 0.92361,1.0783 2.3618,2.717 3.1958,3.6407 0.83393,0.92361 2.54,2.7496 3.7909,4.0588 1.2509,1.3092 3.346,3.403 4.6552,4.6539 1.3092,1.2509 3.1105,2.9345 4.0028,3.7415 0.89224,0.80817 2.5658,2.2765 3.7191,3.2651 1.1534,0.98863 3.0702,2.5758 4.2594,3.5274 1.1893,0.95166 2.8942,2.2866 3.7875,2.967 0.89448,0.68038 2.6845,1.9929 3.9792,2.9166 1.2946,0.92361 3.2619,2.2855 4.3715,3.0252 1.1097,0.73868 2.7877,1.8338 3.7282,2.4313 0.94155,0.59856 2.7069,1.6825 3.9231,2.4111 1.2173,0.72747 3.1206,1.8282 4.2302,2.447 1.1097,0.61873 3.1778,1.734 4.5957,2.4783 1.4179,0.74427 3.7471,1.9089 5.1763,2.5869 1.428,0.67814 3.4502,1.6118 4.4914,2.0737 1.0424,0.46182 2.8236,1.2274 3.96,1.7004 1.1355,0.47413 3.023,1.2285 4.1945,1.678 1.1713,0.44836 3.2899,1.2285 4.7078,1.7318 1.4179,0.5044 3.8391,1.3114 5.3803,1.7934 1.5412,0.48199 3.8873,1.1814 5.2122,1.5536 1.326,0.37326 3.4276,0.9326 4.6719,1.2431 1.2431,0.31161 3.3873,0.81712 4.7638,1.1231 1.3753,0.30601 3.8391,0.80704 5.4722,1.1142 1.6343,0.30714 3.9792,0.71177 5.2122,0.90009 1.233,0.18829 3.2002,0.4674 4.3715,0.62098 1.1713,0.15362 3.0881,0.37998 4.2594,0.50441 1.1713,0.12338 3.0633,0.30038 4.2034,0.39118 1.1411,0.0919 2.9817,0.22081 4.0913,0.28807 1.1097,0.0661 3.8334,0.16027 6.0528,0.21073 2.2194,0.0494 4.6662,0.0651 5.4364,0.0337 0.77118,-0.0302 4.0116,0.0121 7.203,0.0919 4.6092,0.11652 6.658,0.11995 9.976,0.0141 2.2956,-0.0728 5.3097,-0.20737 6.6961,-0.29928 1.3877,-0.0919 3.0768,-0.21744 3.755,-0.28022 0.67815,-0.0617 1.9896,-0.1895 2.9143,-0.28246 0.92474,-0.0942 2.6902,-0.29704 3.9231,-0.45173 1.233,-0.15362 2.8976,-0.3811 3.699,-0.50327 0.80144,-0.12338 2.4918,-0.39681 3.755,-0.60865 1.2644,-0.21073 3.1857,-0.56045 4.2717,-0.77679 1.085,-0.21633 2.9008,-0.59855 4.0352,-0.85075 1.1332,-0.2522 3.0702,-0.71066 4.3032,-1.0178 1.233,-0.30824 2.8976,-0.73866 3.699,-0.95612 0.80144,-0.21745 2.6174,-0.74203 4.0352,-1.1646 1.4179,-0.42257 3.6373,-1.1187 4.9319,-1.548 1.2946,-0.42818 3.2865,-1.1175 4.4275,-1.5311 1.1411,-0.41363 3.2585,-1.2207 4.7078,-1.7934 1.4493,-0.57166 3.5421,-1.4303 4.6517,-1.9078 1.1097,-0.47749 3.0522,-1.3462 4.3154,-1.929 1.2644,-0.58399 3.7864,-1.8125 5.6045,-2.7295 1.8192,-0.91803 4.3648,-2.2563 5.6583,-2.9738 1.2924,-0.71851 3.2853,-1.8618 4.4275,-2.5434 1.1411,-0.6804 2.9591,-1.7912 4.0374,-2.4682 1.0794,-0.67701 2.9962,-1.9246 4.2594,-2.7708 1.2644,-0.84738 3.1306,-2.1331 4.1473,-2.8571 1.0178,-0.72411 2.8605,-2.085 4.0969,-3.022 1.2364,-0.93818 2.7742,-2.1263 3.4187,-2.6408 0.64452,-0.51561 2.1051,-1.7183 3.245,-2.6744 1.1411,-0.95613 2.7551,-2.3416 3.5869,-3.078 0.83283,-0.73642 2.447,-2.2093 3.5869,-3.273 1.1411,-1.0637 3.3615,-3.2383 4.9364,-4.8311 1.5738,-1.5928 3.4423,-3.5274 4.153,-4.2975 0.70953,-0.77118 1.8696,-2.0569 2.5781,-2.8583 0.70842,-0.80144 1.8439,-2.113 2.5242,-2.9143 0.67925,-0.80144 1.9638,-2.3652 2.8538,-3.4748 0.89111,-1.1097 2.3785,-3.0264 3.3066,-4.2594 0.92924,-1.233 2.262,-3.0488 2.9625,-4.0352 0.70056,-0.98639 2.114,-3.0601 3.1407,-4.607 1.0268,-1.548 2.4974,-3.8425 3.2685,-5.1001 0.77005,-1.2576 2.0333,-3.3964 2.8067,-4.7525 0.77342,-1.3563 1.7587,-3.1218 2.1902,-3.9231 0.43042,-0.80144 1.4897,-2.8696 2.3527,-4.5957 0.86309,-1.7262 1.9829,-4.0431 2.4884,-5.1495 0.5044,-1.1063 1.2476,-2.7708 1.65,-3.699 0.40241,-0.92811 1.2263,-2.9244 1.8304,-4.4342 0.60416,-1.5098 1.4381,-3.68 1.8517,-4.8199 0.41473,-1.1411 1.1725,-3.3347 1.6836,-4.8759 0.51114,-1.5412 1.2621,-3.931 1.669,-5.312 0.40689,-1.3798 1.0402,-3.6496 1.409,-5.044 0.36766,-1.3933 0.9225,-3.6373 1.2341,-4.9846 0.31049,-1.3473 0.81376,-3.6933 1.1175,-5.2122 0.30375,-1.5188 0.72859,-3.8211 0.94379,-5.1158 0.21521,-1.2946 0.51898,-3.2619 0.67591,-4.3715 0.15684,-1.1097 0.38671,-2.8504 0.51001,-3.8671 0.12337,-1.0178 0.32506,-2.9087 0.44835,-4.2034 0.12217,-1.2946 0.29704,-3.4635 0.38895,-4.8198 0.0907,-1.3563 0.22418,-4.0296 0.29704,-5.9408 0.0806,-2.1464 0.10423,-5.2537 0.0617,-8.1265 -0.0381,-2.5591 -0.12116,-5.5597 -0.18386,-6.6693 -0.0627,-1.1097 -0.19051,-3.0264 -0.28472,-4.2594 -0.0929,-1.233 -0.27013,-3.226 -0.39342,-4.4275 -0.12338,-1.2027 -0.3755,-3.3716 -0.56158,-4.8198 -0.18608,-1.4493 -0.56269,-4.0094 -0.83731,-5.6908 -0.27462,-1.6802 -0.70616,-4.1014 -0.95836,-5.3803 -0.2522,-1.2778 -0.75884,-3.6463 -1.1265,-5.2638 -0.36766,-1.6174 -1.0155,-4.2402 -1.4415,-5.8286 -0.42481,-1.5883 -1.0817,-3.9231 -1.4583,-5.1864 -0.37663,-1.2644 -1.1074,-3.5588 -1.622,-5.1001 -0.51561,-1.5412 -1.3395,-3.8872 -1.8315,-5.2122 -0.49207,-1.3249 -1.2487,-3.2931 -1.6814,-4.3715 -0.43154,-1.0794 -1.187,-2.8942 -1.678,-4.0352 -0.49095,-1.1411 -1.3339,-3.0321 -1.8741,-4.2034 -0.54029,-1.1713 -1.5995,-3.3661 -2.3561,-4.8759 -0.75548,-1.511 -1.8652,-3.6542 -2.466,-4.7638 -0.60079,-1.1097 -1.5984,-2.9008 -2.2172,-3.9792 -0.61875,-1.0794 -1.5524,-2.6678 -2.0749,-3.5308 -0.52346,-0.86309 -1.6466,-2.6543 -2.4952,-3.9792 -0.84851,-1.3249 -2.1769,-3.3312 -2.9512,-4.4568 -0.77455,-1.1265 -1.9481,-2.791 -2.6073,-3.699 -0.6602,-0.90905 -2.123,-2.8627 -3.2506,-4.3423 -1.1287,-1.4796 -2.8772,-3.7998 -3.886,-5.1561 -1.0099,-1.3563 -2.5837,-3.3996 -3.4994,-4.5396 -0.91466,-1.1411 -2.2182,-2.7295 -2.8964,-3.5308 -0.67815,-0.80144 -1.7878,-2.0882 -2.4672,-2.8583 -0.67927,-0.77118 -2.1029,-2.3347 -3.1643,-3.4748 -1.0604,-1.1411 -3.357,-3.4883 -5.1045,-5.2166 -1.7475,-1.7284 -3.8066,-3.7248 -4.5777,-4.4354 -0.77005,-0.71064 -2.2329,-2.0198 -3.2506,-2.9099 -1.0166,-0.88999 -2.4289,-2.1005 -3.1385,-2.6914 -0.7084,-0.59071 -2.0456,-1.678 -2.9704,-2.4166 -0.92474,-0.73866 -2.4122,-1.8999 -3.3066,-2.5803 -0.89335,-0.68038 -2.3561,-1.7654 -3.2506,-2.4099 -0.89335,-0.64564 -2.5075,-1.7822 -3.5869,-2.5254 -1.0783,-0.74427 -2.8942,-1.956 -4.0352,-2.6924 -1.1399,-0.73755 -3.1575,-1.9952 -4.4836,-2.7966 -1.3249,-0.80144 -3.4433,-2.039 -4.7078,-2.7506 -1.2632,-0.71177 -3.477,-1.9111 -4.9174,-2.6666 -1.4415,-0.75436 -3.7864,-1.9268 -5.2122,-2.6049 -1.4258,-0.67814 -3.4792,-1.6275 -4.562,-2.1095 -1.0839,-0.48199 -2.8494,-1.2397 -3.9231,-1.6836 -1.075,-0.44389 -2.8617,-1.1579 -3.9713,-1.5872 -1.1097,-0.42931 -2.8998,-1.0974 -3.9792,-1.4841 -1.0783,-0.38784 -3.0466,-1.0592 -4.3715,-1.493 -1.3249,-0.43491 -3.3425,-1.0682 -4.4836,-1.409 -1.1411,-0.33964 -2.8045,-0.81938 -3.699,-1.066 -0.89335,-0.24547 -2.5333,-0.67478 -3.6429,-0.95276 -1.1097,-0.2791 -2.7988,-0.68375 -3.755,-0.90009 -0.955,-0.21633 -2.7462,-0.59968 -3.9792,-0.85188 -1.233,-0.2522 -3.7046,-0.70503 -5.4924,-1.0066 -1.7878,-0.30264 -4.209,-0.67814 -5.3803,-0.83619 -1.1713,-0.15693 -3.0119,-0.38558 -4.0913,-0.50777 -1.0783,-0.12217 -2.7686,-0.29817 -3.755,-0.39008 -0.98639,-0.0919 -2.9782,-0.24436 -4.4275,-0.3374 -1.4482,-0.093 -4.1215,-0.21633 -5.9408,-0.27349 -1.8181,-0.0572 -6.6861,-0.0986 -10.817,-0.0908 z m 1.6253,3.8435 c 1.6343,0.0224 4.1562,0.11993 5.6045,0.21521 1.4493,0.0953 3.7191,0.27575 5.044,0.40016 1.326,0.12442 3.2427,0.32618 4.2594,0.44948 1.0178,0.12217 2.7575,0.34972 3.8671,0.50441 1.1097,0.15468 2.9256,0.43267 4.0352,0.61762 1.1097,0.18495 3.1778,0.56381 4.5957,0.84291 1.4179,0.27798 3.5869,0.73195 4.8198,1.0088 1.233,0.27686 2.7462,0.62884 3.3627,0.78239 0.61649,0.15245 2.2698,0.58624 3.6732,0.96285 1.4045,0.37662 2.5321,0.70503 2.5075,0.72971 -0.0246,0.0247 -0.73082,-0.0818 -1.5692,-0.23652 -0.83841,-0.15469 -2.8236,-0.48199 -4.413,-0.72745 -1.5883,-0.24436 -3.9219,-0.5739 -5.1864,-0.72972 -1.2632,-0.15692 -3.3312,-0.38558 -4.5957,-0.50887 -1.2632,-0.12443 -3.3816,-0.30041 -4.7078,-0.39345 -1.3249,-0.0919 -3.5947,-0.22194 -5.044,-0.28695 -1.4482,-0.065 -4.9285,-0.11096 -7.7342,-0.10312 -2.8044,0.008 -6.8901,-0.0437 -9.0792,-0.11433 -2.188,-0.0706 -5.2144,-0.0975 -6.7254,-0.0605 -1.5098,0.037 -3.8806,0.11546 -5.2682,0.17598 -1.3866,0.0605 -3.5554,0.18494 -4.8198,0.27798 -1.2632,0.093 -3.1048,0.2466 -4.0913,0.33964 -0.98638,0.093 -3.0286,0.32169 -4.5396,0.50777 -1.5098,0.18608 -3.8558,0.50888 -5.2122,0.71737 -1.3563,0.20961 -3.727,0.61202 -5.2682,0.89559 -1.5412,0.28359 -4.0632,0.7936 -5.6045,1.1343 -1.5412,0.33964 -3.9624,0.91466 -5.3803,1.2756 -1.4179,0.36205 -3.8973,1.0368 -5.5091,1.5009 -1.613,0.46404 -4.2336,1.2722 -5.8242,1.7968 -1.5905,0.52458 -2.9099,0.93595 -2.9311,0.91466 -0.0224,-0.0213 1.1108,-0.49433 2.5164,-1.0514 1.4067,-0.55708 3.2518,-1.2688 4.1014,-1.5827 0.84964,-0.31385 2.6656,-0.95052 4.0352,-1.4157 1.3697,-0.46405 3.55,-1.168 4.8444,-1.5636 1.2946,-0.39456 3.5397,-1.0413 4.988,-1.437 1.4493,-0.39568 3.8199,-1.001 5.2682,-1.3451 1.4493,-0.34411 3.8816,-0.87878 5.4061,-1.1882 1.5244,-0.30938 3.6687,-0.71625 4.7638,-0.90345 1.0951,-0.18832 2.7988,-0.46405 3.7852,-0.61313 0.98639,-0.14908 2.6004,-0.3755 3.5869,-0.50217 0.98639,-0.12666 2.4492,-0.30488 3.2506,-0.39568 0.80144,-0.0908 2.643,-0.26564 4.0913,-0.38894 1.4493,-0.1233 3.5925,-0.27686 4.7638,-0.34188 1.1713,-0.065 2.4077,-0.13674 2.7462,-0.16029 0.33963,-0.0224 1.9537,-0.0224 3.5869,0 z m 5.1001,7.3038 c 0.3699,0.0179 1.7071,0.10872 2.9704,0.20289 1.2644,0.093 3.3066,0.27014 4.5396,0.39455 1.233,0.12443 3.226,0.35084 4.4275,0.50327 1.2027,0.15245 3.17,0.42818 4.3715,0.61426 1.2027,0.18608 3.2954,0.53916 4.6517,0.78686 1.3563,0.2466 3.6262,0.69833 5.044,1.0021 1.4179,0.30488 3.7002,0.8317 5.0733,1.1725 1.372,0.34075 3.3391,0.85075 4.3715,1.1344 1.0312,0.28469 2.9357,0.8373 4.2302,1.2285 1.2946,0.39231 3.5554,1.1198 5.0239,1.6174 1.4684,0.49767 3.5611,1.2375 4.6517,1.6432 1.0895,0.40576 2.9659,1.131 4.1675,1.6119 1.2027,0.48085 3.17,1.3014 4.3715,1.8237 1.2027,0.52235 2.9424,1.3036 3.8671,1.7363 0.92474,0.43267 2.3876,1.1287 3.2506,1.5468 0.86309,0.4192 2.5781,1.2879 3.811,1.9313 1.233,0.64228 2.9738,1.5749 3.8671,2.0714 0.89447,0.49657 2.6095,1.4818 3.811,2.1902 1.2027,0.70729 3.0667,1.8394 4.1429,2.5164 1.0772,0.67814 2.9434,1.8887 4.1473,2.6936 1.205,0.80367 3.0736,2.0916 4.1518,2.8627 1.0794,0.77228 2.7686,2.0098 3.755,2.7506 0.98639,0.74202 2.828,2.1791 4.0913,3.1933 1.2644,1.0155 3.1306,2.5601 4.1473,3.4322 1.0178,0.87317 2.4547,2.1319 3.1946,2.7966 0.73979,0.6658 2.5186,2.3258 3.9534,3.6877 1.4348,1.3619 3.7617,3.6889 5.1718,5.1706 1.4101,1.4818 3.2248,3.4322 4.034,4.3346 0.81041,0.90232 2.1083,2.3908 2.8851,3.3066 0.77679,0.91577 2.2037,2.6486 3.1688,3.8514 0.96621,1.2016 2.5658,3.2698 3.5554,4.5957 0.98863,1.3249 2.346,3.1911 3.0163,4.1473 0.6703,0.955 1.9829,2.8976 2.9155,4.3154 0.93371,1.4179 2.3271,3.6115 3.097,4.8759 0.77005,1.2632 1.8304,3.0544 2.3583,3.9792 0.52682,0.92474 1.3451,2.3876 1.8181,3.2506 0.47191,0.86309 1.632,3.107 2.5781,4.988 0.94491,1.8797 2.2238,4.5283 2.8416,5.8847 0.61762,1.3563 1.4617,3.273 1.8764,4.2594 0.41473,0.98639 1.1321,2.7518 1.5939,3.9231 0.4618,1.1713 1.1803,3.0623 1.5962,4.2034 0.41586,1.1411 1.1949,3.4042 1.7307,5.0317 0.5358,1.6264 1.3462,4.2528 1.8013,5.8353 0.4562,1.5827 1.1074,3.9915 1.4482,5.3511 0.34188,1.3608 0.84517,3.476 1.1209,4.7011 0.27462,1.2252 0.68264,3.1599 0.90569,4.3009 0.22305,1.1411 0.60191,3.2339 0.8418,4.6517 0.23986,1.4179 0.58847,3.7125 0.77452,5.1001 0.18487,1.3866 0.38784,3.051 0.44949,3.699 0.0617,0.64675 0.176,2.1858 0.25557,3.4187 0.0942,1.4594 0.14354,4.7471 0.14011,9.4155 -0.004,5.6246 -0.0472,7.7666 -0.19837,9.9199 -0.10645,1.5098 -0.29478,3.8558 -0.41808,5.2122 -0.12338,1.3563 -0.3755,3.7012 -0.56045,5.2122 -0.18487,1.5098 -0.51561,3.8996 -0.73419,5.3085 -0.21857,1.409 -0.61762,3.7292 -0.8855,5.1561 -0.26902,1.4269 -0.67143,3.4512 -0.89448,4.4993 -0.22307,1.048 -0.75437,3.3179 -1.1803,5.044 -0.42481,1.7262 -1.1489,4.4499 -1.6085,6.0528 -0.45956,1.6029 -1.2744,4.2505 -1.8114,5.8847 -0.5369,1.6331 -1.3798,4.08 -1.8741,5.4363 -0.49319,1.3563 -1.363,3.6262 -1.9346,5.044 -0.57055,1.4179 -1.4684,3.5623 -1.9952,4.7638 -0.52571,1.2016 -1.4426,3.2192 -2.0368,4.4836 -0.59407,1.2644 -1.6824,3.4714 -2.4178,4.9051 -0.73642,1.4336 -1.9772,3.7538 -2.7575,5.1561 -0.78126,1.4022 -2.0086,3.532 -2.7295,4.7346 -0.71961,1.2016 -1.956,3.1946 -2.7474,4.4275 -0.79249,1.233 -2.0456,3.124 -2.7877,4.2034 -0.7409,1.0783 -1.8001,2.5916 -2.3539,3.3627 -0.55371,0.77005 -1.5995,2.1902 -2.3259,3.1542 -0.72521,0.96398 -1.9369,2.5277 -2.6914,3.4748 -0.75436,0.94716 -1.8786,2.3271 -2.4962,3.0667 -0.61875,0.73979 -1.6287,1.9246 -2.2452,2.6341 -0.61649,0.7084 -1.8495,2.096 -2.7418,3.0825 -0.89111,0.98639 -3.4411,3.6115 -5.665,5.8343 -2.2238,2.2216 -4.8378,4.7525 -5.8085,5.6246 -0.9707,0.87093 -2.6095,2.3091 -3.6429,3.1958 -1.0335,0.88664 -2.4335,2.0648 -3.1117,2.6196 -0.67815,0.55371 -2.141,1.7138 -3.2506,2.5768 -1.1097,0.86422 -2.7742,2.1263 -3.699,2.8067 -0.92474,0.6804 -2.3113,1.6802 -3.0825,2.2228 -0.77005,0.54252 -2.5613,1.7531 -3.9792,2.6914 -1.4179,0.93705 -3.4861,2.2607 -4.5957,2.9411 -1.1097,0.68038 -2.7742,1.6791 -3.699,2.2194 -0.92474,0.53916 -2.7406,1.5625 -4.0352,2.272 -1.2946,0.70953 -3.9927,2.1029 -5.9968,3.096 -2.003,0.99423 -4.8781,2.3551 -6.3891,3.0264 -1.5098,0.67028 -4.0431,1.7407 -5.6281,2.3775 -1.5861,0.63781 -4.0576,1.5827 -5.4924,2.1017 -1.4358,0.51785 -3.7707,1.3227 -5.1886,1.7867 -1.4179,0.46518 -3.7125,1.1736 -5.1001,1.576 -1.3866,0.40129 -3.3794,0.95613 -4.4275,1.2341 -1.048,0.27685 -3.0141,0.76332 -4.3681,1.0817 -1.3552,0.31833 -3.6978,0.8261 -5.2065,1.1287 -1.5076,0.30264 -4.107,0.77679 -5.7748,1.0536 -1.6679,0.27686 -3.9657,0.6277 -5.1067,0.77903 -1.14,0.1524 -3.2585,0.40352 -4.7078,0.55708 -1.4482,0.15362 -3.6171,0.35532 -4.8198,0.44948 -1.2016,0.0931 -3.1946,0.22305 -4.4275,0.29031 -1.233,0.0673 -3.2506,0.12096 -4.4836,0.12096 -1.233,-0.001 -3.1744,-0.0548 -4.3154,-0.11995 -1.14,-0.0651 -2.7799,-0.17036 -3.6429,-0.23428 -0.86309,-0.0627 -2.3763,-0.18951 -3.3627,-0.28023 -0.98639,-0.0919 -2.4738,-0.2421 -3.3066,-0.33514 -0.8317,-0.0931 -2.6228,-0.32058 -3.9792,-0.50553 -1.3563,-0.18608 -3.6508,-0.53466 -5.1001,-0.77676 -1.4482,-0.24213 -3.7875,-0.6703 -5.1976,-0.95166 -1.4101,-0.28133 -3.7796,-0.7947 -5.266,-1.1388 -1.4863,-0.34524 -3.8895,-0.94604 -5.341,-1.3361 -1.4516,-0.39006 -3.4949,-0.96621 -4.5418,-1.2812 -1.0469,-0.31498 -2.8111,-0.86758 -3.9209,-1.2285 -1.1097,-0.36092 -2.976,-0.99423 -4.1473,-1.4056 -1.1713,-0.41139 -2.9871,-1.0761 -4.0352,-1.4774 -1.048,-0.40128 -2.8639,-1.1254 -4.0352,-1.6085 -1.1713,-0.48312 -3.0377,-1.279 -4.1473,-1.7699 -1.1097,-0.48983 -3.152,-1.4314 -4.5396,-2.0926 -1.3866,-0.6602 -3.1016,-1.5042 -3.811,-1.8764 -0.7084,-0.37103 -1.8685,-0.97968 -2.5781,-1.3529 -0.7084,-0.37215 -2.1464,-1.1568 -3.1946,-1.743 -1.048,-0.58513 -3.0242,-1.7352 -4.3917,-2.5545 -1.3686,-0.81936 -3.2091,-1.9537 -4.0913,-2.5198 -0.88327,-0.56716 -2.2855,-1.4852 -3.1184,-2.0412 -0.8317,-0.55598 -2.2698,-1.5401 -3.1946,-2.187 -0.92474,-0.64675 -2.7406,-1.9672 -4.0352,-2.9333 -1.2946,-0.96621 -3.3627,-2.5646 -4.5957,-3.551 -1.233,-0.9875 -3.2002,-2.6184 -4.3715,-3.625 -1.1713,-1.0066 -2.9367,-2.5636 -3.9231,-3.4591 -0.98639,-0.89558 -3.1486,-2.9682 -4.8053,-4.6045 -1.6567,-1.6365 -3.7695,-3.7808 -4.6955,-4.765 -0.92587,-0.98528 -2.4033,-2.5994 -3.2831,-3.5869 -0.87877,-0.98863 -2.4414,-2.8057 -3.4714,-4.0387 -1.0301,-1.233 -2.1745,-2.6454 -2.5444,-3.1385 -0.36877,-0.49319 -1.613,-2.3091 -2.7654,-4.0352 -1.1512,-1.7262 -2.5781,-3.9209 -3.1688,-4.8759 -0.59184,-0.95613 -1.4784,-2.4188 -1.9728,-3.2506 -0.49319,-0.83283 -1.3753,-2.3706 -1.9604,-3.4187 -0.5851,-1.048 -1.5849,-2.8897 -2.2204,-4.0913 -0.63667,-1.2016 -1.6701,-3.245 -2.2978,-4.5396 -0.62658,-1.2946 -1.595,-3.3627 -2.1521,-4.5957 -0.55709,-1.233 -1.4538,-3.301 -1.993,-4.5957 -0.53916,-1.2946 -1.4314,-3.5397 -1.984,-4.988 -0.55147,-1.4493 -1.576,-4.3491 -2.2755,-6.4452 -0.70056,-2.096 -1.6488,-5.1224 -2.1073,-6.7254 -0.45844,-1.6029 -1.0895,-3.9231 -1.4022,-5.1561 -0.31161,-1.233 -0.7936,-3.2506 -1.0705,-4.4836 -0.27685,-1.233 -0.67927,-3.125 -0.89335,-4.2034 -0.2141,-1.0794 -0.54363,-2.8448 -0.73305,-3.9231 -0.18832,-1.0794 -0.51675,-3.1474 -0.73082,-4.5957 -0.21297,-1.4493 -0.49096,-3.5173 -0.6165,-4.5957 -0.12442,-1.0794 -0.32729,-3.0712 -0.44948,-4.4275 -0.1233,-1.3563 -0.27575,-3.2226 -0.33964,-4.1473 -0.0639,-0.92474 -0.16701,-2.7406 -0.22755,-4.0352 -0.0616,-1.2946 -0.11096,-4.6495 -0.11096,-7.454 0,-2.8057 0.0516,-6.2097 0.11433,-7.566 0.0617,-1.3563 0.18942,-3.5252 0.28246,-4.8198 0.093,-1.2946 0.26902,-3.3627 0.39232,-4.5957 0.12329,-1.233 0.35084,-3.2506 0.50553,-4.4836 0.15469,-1.233 0.40576,-3.0746 0.55932,-4.0913 0.15356,-1.0178 0.40465,-2.5815 0.55821,-3.4748 0.15469,-0.89447 0.48422,-2.6599 0.73306,-3.9231 0.24996,-1.2644 0.68038,-3.3066 0.95612,-4.5396 0.27686,-1.233 0.75885,-3.2506 1.0705,-4.4836 0.31272,-1.233 0.93708,-3.5286 1.3877,-5.1001 0.45173,-1.5726 1.1231,-3.7909 1.4942,-4.9319 0.37103,-1.1411 0.93258,-2.828 1.2476,-3.7494 0.31609,-0.92137 0.97855,-2.7551 1.474,-4.0756 0.49432,-1.3193 1.3709,-3.5421 1.9459,-4.9376 0.57503,-1.3955 1.372,-3.2698 1.7699,-4.163 0.39792,-0.89448 1.0873,-2.4043 1.5323,-3.356 0.44499,-0.95163 1.2902,-2.6924 1.8786,-3.8671 0.58847,-1.1747 1.5984,-3.1206 2.2452,-4.3221 0.64675,-1.2027 1.752,-3.1867 2.4559,-4.4108 0.70504,-1.224 1.7665,-3.0151 2.3605,-3.9792 0.59294,-0.9651 1.5816,-2.5365 2.1958,-3.4915 0.61537,-0.95613 1.6006,-2.4436 2.1902,-3.3066 0.5896,-0.86309 1.576,-2.2755 2.1914,-3.1385 0.61425,-0.86309 1.7845,-2.4559 2.5982,-3.5397 0.81489,-1.0839 2.1005,-2.7484 2.8583,-3.699 0.75774,-0.95052 2.1196,-2.6117 3.0264,-3.6901 0.90793,-1.0794 2.1656,-2.5422 2.7966,-3.2506 0.63107,-0.70953 1.9414,-2.1464 2.9131,-3.1946 0.97181,-1.048 3.2484,-3.3693 5.0575,-5.1583 1.8102,-1.7901 4.0733,-3.959 5.0283,-4.8198 0.95613,-0.86196 2.4694,-2.2003 3.3627,-2.9748 0.89448,-0.77342 2.3315,-1.9885 3.1946,-2.699 0.86309,-0.71064 2.3785,-1.9223 3.3683,-2.6946 0.98863,-0.77118 2.6533,-2.0321 3.699,-2.8022 1.0447,-0.76894 2.7327,-1.9795 3.7494,-2.6879 1.0178,-0.70953 2.4547,-1.6937 3.1946,-2.188 0.73979,-0.49433 2.2317,-1.4572 3.3155,-2.1398 1.0839,-0.68261 2.7742,-1.7183 3.755,-2.3023 0.98191,-0.58399 2.7428,-1.604 3.9143,-2.2676 1.1713,-0.66356 3.7437,-2.0277 5.7166,-3.0321 1.9728,-1.0043 4.4701,-2.2384 5.5484,-2.744 1.0794,-0.50553 2.9458,-1.3462 4.1473,-1.8685 1.2016,-0.52234 3.1946,-1.3529 4.4275,-1.8461 1.233,-0.49319 3.0488,-1.1982 4.0352,-1.567 0.98639,-0.36876 3.0544,-1.0973 4.5957,-1.6186 1.5412,-0.52122 3.8614,-1.27 5.1561,-1.6645 1.2946,-0.39344 2.9849,-0.89224 3.755,-1.1074 0.77118,-0.21521 2.4861,-0.66806 3.811,-1.0066 1.326,-0.3374 3.2169,-0.7936 4.2034,-1.0133 0.98639,-0.21971 2.374,-0.52346 3.0825,-0.67478 0.70953,-0.15132 2.55,-0.5044 4.0913,-0.78575 1.5412,-0.28136 3.811,-0.6602 5.044,-0.84404 1.233,-0.18271 3.0488,-0.43491 4.0352,-0.56045 0.98639,-0.12443 2.4996,-0.30151 3.3627,-0.39455 0.86309,-0.0919 2.4525,-0.24212 3.5308,-0.33403 1.0794,-0.0919 2.819,-0.22305 3.8671,-0.29256 1.048,-0.0684 2.8391,-0.15917 3.9792,-0.20289 1.1411,-0.0426 2.3763,-0.0628 2.7462,-0.0448 z m -48.021,4.0703 c 0.093,-0.002 -1.2442,0.46965 -2.9704,1.048 -1.7262,0.5795 -4.0465,1.3899 -5.1561,1.8024 -1.1097,0.41361 -3.3155,1.2734 -4.9027,1.9134 -1.5861,0.63891 -4.108,1.706 -5.6045,2.3696 -1.4953,0.66469 -4.3076,1.9952 -6.2502,2.9559 -1.9414,0.96173 -4.4388,2.243 -5.5484,2.847 -1.1097,0.60416 -2.8998,1.604 -3.9792,2.2226 -1.0783,0.61762 -2.8942,1.6926 -4.0352,2.3876 -1.14,0.69608 -2.9178,1.8102 -3.9489,2.476 -1.0312,0.66693 -2.6454,1.7408 -3.5857,2.3886 -0.94042,0.64675 -2.4424,1.7015 -3.3369,2.3426 -0.89448,0.64115 -2.5589,1.8719 -3.7002,2.7361 -1.14,0.86309 -2.7037,2.0749 -3.4748,2.6936 -0.77005,0.61762 -2.1073,1.7116 -2.9704,2.4323 -0.86309,0.71961 -2.2497,1.9044 -3.0825,2.6329 -0.8317,0.72859 -2.3202,2.0592 -3.3066,2.9559 -0.98639,0.89785 -3.3582,3.1958 -5.2716,5.109 -1.9123,1.9123 -4.413,4.5104 -5.5563,5.7748 -1.1444,1.2632 -2.7518,3.079 -3.5724,4.0352 -0.82162,0.955 -2.4625,2.948 -3.6463,4.4275 -1.1848,1.4796 -2.7575,3.4972 -3.4972,4.4836 -0.73866,0.98639 -1.8024,2.4335 -2.3628,3.2147 -0.56158,0.78126 -1.7497,2.4962 -2.6398,3.811 -0.88999,1.3148 -2.1442,3.2226 -2.7877,4.2392 -0.64339,1.0166 -1.8024,2.9087 -2.5758,4.2034 -0.77342,1.2946 -1.9963,3.4131 -2.717,4.7078 -0.71961,1.2946 -2.2305,4.1955 -3.356,6.4452 -1.1265,2.2496 -2.4559,4.9993 -2.9546,6.1089 -0.4988,1.1097 -1.3854,3.152 -1.9683,4.5396 -0.58287,1.3866 -1.5412,3.7842 -2.1275,5.3265 -0.58734,1.5435 -1.4773,4.0094 -1.9784,5.4811 -0.50103,1.4717 -1.2094,3.6395 -1.5749,4.8176 -0.36542,1.1769 -0.91353,3.023 -1.2195,4.1026 -0.30488,1.0783 -0.8855,3.273 -1.289,4.8759 -0.40239,1.6029 -0.9606,3.9477 -1.2386,5.2122 -0.27798,1.2632 -0.68711,3.2562 -0.90905,4.4275 -0.22194,1.1713 -0.60081,3.3403 -0.84291,4.8199 -0.24212,1.4796 -0.56492,3.6228 -0.7185,4.7638 -0.15356,1.1399 -0.40466,3.2585 -0.55821,4.7078 -0.15356,1.4482 -0.35532,3.6171 -0.44836,4.8198 -0.093,1.2016 -0.23426,3.2192 -0.31272,4.4836 -0.0919,1.4538 -0.14348,4.8513 -0.14348,9.2474 0,4.312 0.0538,7.8003 0.14235,9.1913 0.0773,1.233 0.21744,3.2248 0.31048,4.4275 0.0942,1.2016 0.29704,3.3706 0.4506,4.8199 0.15356,1.4482 0.40576,3.5667 0.55932,4.7078 0.15355,1.14 0.45396,3.1665 0.66693,4.5025 0.21297,1.3361 0.56605,3.3728 0.78463,4.5261 0.21857,1.1545 0.3755,2.1196 0.3486,2.1464 -0.0269,0.0268 -0.1289,-0.2948 -0.2253,-0.71513 -0.0964,-0.42034 -0.37663,-1.6219 -0.62097,-2.67 -0.24436,-1.048 -0.64565,-2.8897 -0.89112,-4.0913 -0.24659,-1.2027 -0.65235,-3.346 -0.90119,-4.7638 -0.24996,-1.4179 -0.63107,-3.8145 -0.84627,-5.3243 -0.21521,-1.511 -0.51675,-3.8816 -0.6703,-5.2682 -0.15245,-1.3877 -0.35645,-3.4804 -0.45173,-4.6517 -0.0964,-1.1713 -0.22305,-2.8863 -0.28246,-3.811 -0.0605,-0.92473 -0.16926,-3.607 -0.24212,-5.9621 -0.10201,-3.3101 -0.10201,-5.2918 0.002,-8.743 0.074,-2.4537 0.18272,-5.1942 0.241,-6.0875 0.0583,-0.89448 0.18607,-2.5837 0.28246,-3.755 0.0953,-1.1713 0.27462,-3.0633 0.39679,-4.2034 0.1233,-1.1411 0.3755,-3.2091 0.56158,-4.5957 0.18607,-1.3877 0.54026,-3.7326 0.78799,-5.2122 0.24773,-1.4796 0.67701,-3.8256 0.95389,-5.2122 0.27799,-1.3877 0.75548,-3.607 1.0604,-4.932 0.306,-1.3249 0.78462,-3.2931 1.0648,-4.3715 0.27909,-1.0794 0.76108,-2.8448 1.0693,-3.9231 0.30825,-1.0794 0.88999,-3.0208 1.2935,-4.3154 0.40239,-1.2946 1.1366,-3.5141 1.6309,-4.9319 0.49433,-1.4179 1.3664,-3.7887 1.9392,-5.2682 0.57279,-1.4796 1.3753,-3.4893 1.7834,-4.4656 0.40799,-0.97631 1.2307,-2.8684 1.8293,-4.2034 0.59855,-1.335 1.854,-3.9669 2.791,-5.8466 0.93707,-1.8809 2.142,-4.2257 2.6766,-5.2122 0.53466,-0.98639 1.6287,-2.9288 2.4313,-4.3154 0.80257,-1.3877 2.0412,-3.4556 2.7528,-4.5957 0.71177,-1.1411 2.0412,-3.1968 2.9546,-4.5689 0.91353,-1.372 2.3001,-3.3895 3.0825,-4.4836 0.78239,-1.094 2.0513,-2.8214 2.8214,-3.8379 0.76894,-1.0178 2.1666,-2.8079 3.106,-3.9792 0.93819,-1.1713 2.494,-3.0466 3.4568,-4.1675 0.96285,-1.1209 2.54,-2.9121 3.505,-3.9792 0.96397,-1.0682 3.6004,-3.7852 5.8579,-6.0383 3.0252,-3.0208 4.5564,-4.459 5.8252,-5.471 0.94715,-0.7566 2.5107,-1.9683 3.4748,-2.6936 0.96397,-0.72521 2.7619,-2.04 3.9949,-2.9222 1.233,-0.88103 3.3258,-2.3192 4.6517,-3.1946 1.3249,-0.87543 3.2673,-2.123 4.3154,-2.772 1.048,-0.64899 2.8639,-1.7374 4.0352,-2.4166 1.1713,-0.68038 3.1139,-1.7744 4.3154,-2.4313 1.2016,-0.65796 3.2708,-1.7419 4.5957,-2.4099 1.326,-0.66806 3.5195,-1.7318 4.8759,-2.3618 1.3563,-0.63106 3.6766,-1.6645 5.1561,-2.2966 1.4796,-0.63107 3.8862,-1.6074 5.3489,-2.169 1.4616,-0.56158 3.5802,-1.3451 4.7078,-1.7408 1.1265,-0.39568 3.2349,-1.0996 4.6832,-1.5659 1.4493,-0.46517 3.7191,-1.1568 5.044,-1.5368 1.326,-0.37886 3.7717,-1.0346 5.4363,-1.456 1.6645,-0.42258 3.1026,-0.76895 3.1946,-0.77229 z m 93.432,0.89559 c 0.0639,-0.003 1.3249,0.31946 2.8022,0.71624 1.4773,0.39679 3.9219,1.0996 5.4319,1.5625 1.511,0.4618 3.8604,1.2184 5.221,1.6813 1.3619,0.46293 3.4848,1.2184 4.719,1.6791 1.2341,0.45956 3.1722,1.2139 4.3066,1.6757 1.1343,0.46069 2.8696,1.1893 3.8558,1.6186 1.0716,0.46517 2.6958,1.3114 4.0352,2.1017 1.233,0.72635 3.125,1.8764 4.2034,2.5545 1.0794,0.67815 2.9458,1.8898 4.1473,2.6936 1.2027,0.80368 2.9682,2.0164 3.9231,2.6958 0.95613,0.67814 2.6454,1.9156 3.755,2.7484 1.1097,0.8317 2.6228,1.9918 3.3627,2.5768 0.73979,0.58511 2.2025,1.7755 3.2506,2.6464 1.048,0.86983 2.5613,2.1565 3.3627,2.8583 0.80144,0.70169 2.3404,2.086 3.4187,3.0746 1.0794,0.98976 3.2742,3.1117 4.8793,4.7156 1.6051,1.6029 3.8199,3.8985 4.9219,5.1013 1.1007,1.2016 2.893,3.2238 3.9826,4.4914 1.0884,1.2688 2.7629,3.2865 3.7191,4.4836 0.95724,1.1982 2.2194,2.8079 2.8057,3.579 0.5851,0.77005 1.483,1.9806 1.9941,2.6902 0.51114,0.7084 0.85301,1.2128 0.75997,1.1209 -0.0929,-0.093 -1.0749,-1.3036 -2.1835,-2.6902 -1.1086,-1.3877 -2.6879,-3.3044 -3.5107,-4.2594 -0.82273,-0.95613 -2.1543,-2.4672 -2.9591,-3.3605 -0.80481,-0.89224 -1.9638,-2.1533 -2.5768,-2.8022 -0.61315,-0.64788 -1.799,-1.8775 -2.6341,-2.7305 -0.8362,-0.85412 -2.5053,-2.4928 -3.709,-3.6429 -1.2038,-1.15 -2.92,-2.7474 -3.8122,-3.5488 -0.89224,-0.80144 -1.9997,-1.7878 -2.4615,-2.1914 -0.46293,-0.40352 -1.4706,-1.2644 -2.2418,-1.9145 -0.77005,-0.649 -2.2833,-1.8865 -3.3627,-2.7496 -1.0783,-0.86196 -2.9704,-2.3246 -4.2034,-3.2494 -1.233,-0.92586 -3.124,-2.3035 -4.2034,-3.0623 -1.0783,-0.75773 -3.0466,-2.096 -4.3715,-2.9726 -1.3249,-0.87654 -3.4042,-2.2059 -4.6193,-2.9546 -1.2162,-0.74876 -3.171,-1.9134 -4.3445,-2.5904 -1.1736,-0.6759 -3.18,-1.7946 -4.459,-2.4873 -1.279,-0.69159 -3.8895,-2.0255 -5.8006,-2.9637 -1.9111,-0.93819 -4.5598,-2.1858 -5.8847,-2.772 -1.3249,-0.58623 -3.1911,-1.391 -4.1473,-1.789 -0.955,-0.39792 -2.8224,-1.14 -4.1473,-1.65 -1.3249,-0.51114 -3.5195,-1.3227 -4.8759,-1.8035 -1.3563,-0.48198 -2.4134,-0.87877 -2.3494,-0.88103 z m -122.51,1.133 c 0.0616,-0.002 -0.54363,0.32393 -1.3451,0.72522 -0.80144,0.40239 -2.3652,1.1994 -3.4748,1.7721 -1.1097,0.5739 -2.8998,1.5345 -3.9792,2.1364 -1.0783,0.60191 -2.819,1.5995 -3.8671,2.2182 -1.048,0.61873 -2.7629,1.6645 -3.811,2.3236 -1.048,0.6591 -2.7125,1.7262 -3.699,2.3718 -0.98638,0.64564 -2.7518,1.845 -3.9231,2.6656 -1.1713,0.8205 -3.1946,2.289 -4.4971,3.2629 -1.3014,0.97405 -3.3693,2.5746 -4.5957,3.5576 -1.2251,0.98192 -3.1867,2.6073 -4.358,3.6115 -1.1713,1.0043 -2.6083,2.2632 -3.1946,2.7988 -0.5851,0.53466 -2.0233,1.7721 -3.1946,2.7496 -1.1713,0.97742 -2.7349,2.3091 -3.4748,2.9615 -0.73979,0.65124 -2.2531,2.0142 -3.3627,3.0286 -1.1097,1.0144 -3.4052,3.2339 -5.1023,4.932 -1.697,1.6982 -3.8929,3.9691 -4.8803,5.0485 -0.98863,1.0783 -2.3517,2.5916 -3.0286,3.3627 -0.67814,0.77005 -1.966,2.2833 -2.8627,3.3627 -0.89785,1.0783 -2.2273,2.7182 -2.9569,3.6429 -0.72858,0.92474 -2.039,2.6398 -2.9121,3.811 -0.87317,1.1713 -2.1319,2.9055 -2.7978,3.8536 -0.66581,0.94829 -2.0299,2.9659 -3.0309,4.4836 -1.001,1.5177 -2.4492,3.7931 -3.2192,5.0575 -0.76894,1.2632 -1.9313,3.2304 -2.5825,4.3715 -0.65236,1.1411 -1.6668,2.9817 -2.2553,4.0913 -0.5896,1.1097 -1.122,2.0938 -1.1848,2.1858 -0.0785,0.11545 -0.0807,0.0706 -0.006,-0.14572 0.0594,-0.17261 0.86309,-1.8125 1.7856,-3.6429 0.92137,-1.8315 2.3494,-4.5396 3.1732,-6.0192 0.82273,-1.4796 2.1892,-3.8413 3.0343,-5.248 0.84627,-1.4079 2.1476,-3.5006 2.8907,-4.6517 0.74427,-1.1523 1.9627,-2.977 2.7081,-4.0554 0.74427,-1.0794 1.9941,-2.8448 2.7764,-3.9231 0.78239,-1.0794 2.1678,-2.92 3.079,-4.0913 0.9113,-1.1713 2.2384,-2.8359 2.9502,-3.699 0.71064,-0.86309 1.8764,-2.2474 2.5894,-3.0768 0.7129,-0.82946 1.8192,-2.0904 2.4581,-2.8022 0.63891,-0.71177 2.2944,-2.4861 3.6788,-3.9411 1.3854,-1.456 3.7371,-3.8076 5.2279,-5.2257 1.4897,-1.4179 3.3403,-3.1452 4.1104,-3.8368 0.77118,-0.69159 2.3347,-2.0501 3.4748,-3.0186 1.1411,-0.96958 2.9704,-2.4773 4.0667,-3.3526 1.0962,-0.87543 2.7865,-2.188 3.755,-2.9166 0.96958,-0.72858 2.67,-1.975 3.7796,-2.7698 1.1097,-0.7936 3.4052,-2.3583 5.1001,-3.4748 1.6959,-1.1175 3.9153,-2.5377 4.9319,-3.1577 1.0178,-0.61986 2.6823,-1.6062 3.699,-2.1936 1.0178,-0.58623 2.6061,-1.4818 3.5308,-1.9907 0.92474,-0.51 3.0938,-1.6399 4.8198,-2.5119 1.7262,-0.87317 4.1473,-2.0478 5.3803,-2.6117 1.233,-0.56381 2.7462,-1.2498 3.3627,-1.5244 0.61649,-0.27462 1.1713,-0.50216 1.233,-0.50553 z m 142.64,0.12891 c 0.0954,0.0291 1.2801,0.54923 2.6341,1.1556 1.354,0.60641 4.0532,1.8909 5.999,2.8561 1.9459,0.9651 4.3929,2.2216 5.4363,2.7944 1.0447,0.57166 2.643,1.465 3.5522,1.9851 0.90906,0.52008 1.6533,0.95836 1.6533,0.97405 0,0.0157 -1.1725,-0.55708 -2.6061,-1.2734 -1.4336,-0.71624 -3.6328,-1.7744 -4.8882,-2.3527 -1.2554,-0.57726 -3.1474,-1.53 -4.2034,-2.1162 -1.057,-0.58734 -3.2327,-1.7441 -4.8356,-2.5714 -1.6029,-0.82723 -2.8369,-1.4807 -2.7418,-1.4516 z m 42.937,29.393 c 0.4562,0.36092 1.4605,1.1612 2.2305,1.7766 0.77118,0.61649 1.8304,1.4762 2.3539,1.9111 0.52459,0.43491 1.7352,1.4684 2.6902,2.2966 0.95613,0.82946 2.6206,2.3146 3.699,3.301 1.0794,0.98752 3.4502,3.2865 5.2704,5.1079 1.8192,1.8226 4.1977,4.2963 5.2849,5.499 1.0884,1.2016 2.6688,2.9928 3.5141,3.9792 0.84517,0.98639 2.1331,2.5242 2.8617,3.4187 0.72859,0.89335 1.8159,2.3315 2.4178,3.1946 0.60192,0.86309 1.6724,2.4514 2.3809,3.5308 0.70727,1.0783 1.8495,2.8696 2.5365,3.9792 0.68711,1.1097 1.706,2.7988 2.2642,3.755 0.5571,0.955 1.3944,2.4212 1.8596,3.2572 0.46517,0.8362 1.4134,2.6016 2.1083,3.9231 0.69496,1.3215 1.6881,3.2853 2.2081,4.3648 0.51897,1.0783 1.4235,3.0186 2.0087,4.3098 0.58621,1.2913 1.5065,3.4099 2.0466,4.7078 0.53916,1.298 1.3473,3.3179 1.7957,4.4892 0.44725,1.1713 1.2352,3.3347 1.7509,4.8076 0.51561,1.4728 1.2375,3.6417 1.6051,4.8199 0.36765,1.1781 0.95163,3.125 1.298,4.3277 0.34748,1.2016 0.90343,3.245 1.2375,4.5396 0.3329,1.2946 0.8799,3.5891 1.2162,5.1001 0.33514,1.5098 0.788,3.6788 1.0066,4.8198 0.21745,1.1411 0.54924,2.9817 0.7353,4.0913 0.18728,1.1097 0.48871,3.0768 0.67142,4.3715 0.18265,1.2946 0.43379,3.2361 0.55821,4.3154 0.12439,1.0783 0.3273,3.096 0.44947,4.4836 0.12217,1.3866 0.27686,3.4042 0.34188,4.4836 0.0661,1.0783 0.16934,3.2472 0.22754,4.8199 0.0595,1.5715 0.10866,4.0935 0.10866,5.6045 10e-4,1.5098 -0.0482,4.1328 -0.10987,5.8287 -0.0605,1.6948 -0.18708,4.2427 -0.28133,5.6605 -0.0941,1.4179 -0.24773,3.3851 -0.34077,4.3715 -0.0929,0.98638 -0.26901,2.6756 -0.39118,3.755 -0.12338,1.0783 -0.35084,2.8942 -0.50777,4.0352 -0.15584,1.14 -0.48646,3.2843 -0.73419,4.7638 -0.2477,1.4796 -0.69719,3.9187 -0.99983,5.4218 -0.30377,1.502 -0.80705,3.8223 -1.1209,5.1561 -0.31385,1.3328 -0.72185,3.004 -0.9068,3.7135 -0.18486,0.7084 -0.53803,2.0198 -0.78462,2.9143 -0.24549,0.89335 -0.67367,2.3819 -0.95053,3.3066 -0.27685,0.92474 -0.65796,2.1599 -0.8474,2.7462 -0.18951,0.58511 -0.72074,2.1745 -1.1814,3.5308 -0.46069,1.3563 -1.2576,3.5812 -1.771,4.9442 -0.51338,1.3619 -1.2711,3.3044 -1.6836,4.3154 -0.41249,1.0099 -1.2296,2.921 -1.8158,4.2471 -0.58512,1.3249 -1.5659,3.4691 -2.1779,4.7638 -0.61202,1.2946 -1.7733,3.6149 -2.5803,5.1561 -0.80705,1.5412 -1.9156,3.597 -2.4625,4.5676 -0.54588,0.97071 -1.4269,2.5097 -1.9571,3.4187 -0.53018,0.90905 -1.0054,1.697 -1.0548,1.7508 -0.0494,0.0526 0.6266,-1.3339 1.5042,-3.0825 0.87656,-1.7486 1.9638,-3.987 2.4156,-4.9735 0.45173,-0.98639 1.2397,-2.7563 1.7497,-3.9332 0.51114,-1.1769 1.3832,-3.2786 1.9403,-4.6709 0.55595,-1.391 1.4123,-3.6306 1.9022,-4.9767 0.48983,-1.3462 1.3283,-3.7786 1.8629,-5.4061 0.53466,-1.6264 1.3496,-4.2717 1.8114,-5.8781 0.46291,-1.6062 1.1377,-4.1092 1.5009,-5.5607 0.36316,-1.4527 0.8373,-3.4232 1.0525,-4.3782 0.21634,-0.95612 0.5952,-2.7462 0.84404,-3.9792 0.24772,-1.233 0.62883,-3.2764 0.84628,-4.5396 0.21633,-1.2644 0.54363,-3.3324 0.72521,-4.5957 0.18164,-1.2644 0.45846,-3.3828 0.61315,-4.7078 0.15583,-1.326 0.35979,-3.2427 0.45283,-4.2594 0.0942,-1.0178 0.24547,-2.9345 0.33627,-4.2594 0.0907,-1.326 0.22531,-3.9489 0.29704,-5.8287 0.0819,-2.1218 0.10543,-5.2257 0.0617,-8.1825 -0.0381,-2.6206 -0.11995,-5.6212 -0.18265,-6.6693 -0.0617,-1.048 -0.19051,-2.9143 -0.28583,-4.1473 -0.0954,-1.233 -0.2948,-3.4524 -0.44163,-4.9319 -0.14797,-1.4796 -0.3004,-3.1194 -0.34076,-3.6429 -0.0393,-0.52459 -0.17035,-1.9369 -0.29143,-3.1385 -0.11996,-1.2027 -0.34522,-3.1946 -0.4988,-4.4275 -0.15463,-1.233 -0.45844,-3.402 -0.67589,-4.8198 -0.21746,-1.4179 -0.64677,-3.9153 -0.95389,-5.5484 -0.30711,-1.6331 -0.83619,-4.2068 -1.1747,-5.7166 -0.33964,-1.511 -0.87206,-3.755 -1.1848,-4.988 -0.31272,-1.233 -0.94379,-3.551 -1.4022,-5.1517 -0.45844,-1.6006 -1.2913,-4.2997 -1.8506,-5.9968 -0.55821,-1.6982 -1.3899,-4.1149 -1.8472,-5.3702 -0.45733,-1.2565 -1.2016,-3.2238 -1.6544,-4.3715 -0.45283,-1.1489 -1.2879,-3.1732 -1.8551,-4.4981 -0.56829,-1.3249 -1.4639,-3.3425 -1.9907,-4.4836 -0.52682,-1.1411 -1.5872,-3.3347 -2.3573,-4.8759 -0.77005,-1.5412 -1.9313,-3.7842 -2.5803,-4.9846 -0.65012,-1.2005 -1.8069,-3.2629 -2.5724,-4.5834 -0.76557,-1.3204 -1.9773,-3.3391 -2.6914,-4.487 -0.71513,-1.1478 -2.04,-3.1958 -2.9458,-4.5519 -0.90456,-1.3563 -2.0882,-3.097 -2.6319,-3.8671 -0.54253,-0.77118 -1.4695,-2.0569 -2.0614,-2.8583 -0.59071,-0.80144 -1.6757,-2.2396 -2.4099,-3.1946 -0.73529,-0.95613 -1.9705,-2.5198 -2.7462,-3.4748 -0.77566,-0.95613 -2.1634,-2.614 -3.0847,-3.6844 -0.92026,-1.0716 -2.4537,-2.8111 -3.4064,-3.8671 -0.95389,-1.0559 -3.7528,-3.9332 -6.2198,-6.3948 -2.7081,-2.699 -4.1574,-4.2134 -3.6564,-3.8167 z m -264.28,46.57 c 0.0179,0 -0.59744,1.2487 -1.3675,2.7742 -0.77005,1.5256 -1.901,3.8592 -2.5119,5.1842 -0.61202,1.3249 -1.4919,3.2921 -1.956,4.3715 -0.46405,1.0783 -1.2958,3.096 -1.8484,4.4836 -0.55148,1.3865 -1.4224,3.6822 -1.9358,5.1001 -0.51337,1.4179 -1.3204,3.7629 -1.7946,5.2122 -0.47301,1.4493 -1.2386,3.9455 -1.7015,5.5484 -0.46181,1.6029 -1.1355,4.0745 -1.4953,5.4924 -0.36093,1.4179 -0.88327,3.6115 -1.1624,4.8759 -0.27909,1.2632 -0.68711,3.2058 -0.90568,4.3154 -0.21858,1.1097 -0.59855,3.2024 -0.84291,4.6517 -0.24436,1.4493 -0.59632,3.7437 -0.78239,5.1001 -0.18608,1.3563 -0.43939,3.374 -0.56269,4.4836 -0.1233,1.1097 -0.27349,2.5724 -0.33514,3.2506 -0.0616,0.67814 -0.16253,1.8887 -0.22418,2.6902 -0.0616,0.80144 -0.1659,2.3337 -0.23202,3.4042 -0.065,1.0704 -0.16366,3.8447 -0.21857,6.1649 -0.0605,2.5466 -0.0594,5.795 0.004,8.1971 0.0572,2.188 0.18158,5.164 0.27462,6.6133 0.0942,1.4482 0.27238,3.7437 0.39568,5.1001 0.12443,1.3563 0.37663,3.7012 0.56045,5.2122 0.18382,1.5098 0.51337,3.9064 0.73306,5.3243 0.21857,1.4179 0.59855,3.6619 0.84291,4.988 0.24436,1.3249 0.69832,3.5947 1.0088,5.044 0.31049,1.4482 0.89335,3.9455 1.2946,5.5484 0.40128,1.6029 1.0548,4.0487 1.4504,5.4364 0.39679,1.3865 1.0559,3.5812 1.465,4.8759 0.40799,1.2946 1.1321,3.4635 1.6085,4.8199 0.47638,1.3563 1.1545,3.2226 1.5065,4.1473 0.35084,0.92474 1.057,2.7148 1.5692,3.9792 0.51225,1.2644 1.4774,3.5342 2.1454,5.044 0.66806,1.5098 2.1589,4.6372 3.3123,6.9496 1.1534,2.3113 2.6734,5.2368 3.3772,6.5012 0.7028,1.2644 1.7228,3.0544 2.2654,3.9792 0.5414,0.92474 1.5502,2.5894 2.2406,3.699 0.69048,1.1097 1.7329,2.7496 2.317,3.6441 0.584,0.89445 1.7094,2.5589 2.5006,3.699 0.79247,1.14 2.0692,2.9301 2.8391,3.978 0.77005,1.048 2.0972,2.8135 2.9512,3.9231 0.85301,1.1097 2.3853,3.1429 3.4052,4.5172 1.02,1.3753 2.4424,3.2417 3.1609,4.1473 0.71851,0.90679 1.938,2.4043 2.7081,3.329 0.77118,0.92474 1.8842,2.2361 2.4738,2.9131 0.5896,0.67814 1.8237,2.0648 2.7418,3.0825 0.9169,1.0178 3.6496,3.8278 6.0708,6.2446 3.5701,3.5623 4.209,4.2415 3.3762,3.5947 -0.56493,-0.44052 -1.8091,-1.4336 -2.7654,-2.2081 -0.955,-0.77453 -2.4682,-2.0356 -3.3627,-2.8022 -0.89335,-0.76558 -2.6083,-2.2777 -3.811,-3.3593 -1.2016,-1.0817 -3.8548,-3.6316 -5.8948,-5.6684 -2.039,-2.0366 -4.4993,-4.5755 -5.4656,-5.6438 -0.9662,-1.0671 -2.5456,-2.8583 -3.5084,-3.9792 -0.96397,-1.1209 -2.643,-3.1474 -3.7314,-4.5038 -1.0873,-1.3563 -2.7103,-3.4502 -3.606,-4.6517 -0.89559,-1.2027 -2.1779,-2.9682 -2.8494,-3.9231 -0.6703,-0.95613 -2.0321,-2.9738 -3.0252,-4.4836 -0.99312,-1.511 -2.2374,-3.4524 -2.7664,-4.3154 -0.52906,-0.86309 -1.3653,-2.2563 -1.8596,-3.096 -0.4932,-0.83956 -1.4404,-2.5041 -2.1029,-3.699 -0.66246,-1.1949 -1.8506,-3.4332 -2.6385,-4.9745 -0.78911,-1.5412 -1.8685,-3.7304 -2.3998,-4.8658 -0.53019,-1.1344 -1.3978,-3.051 -1.9268,-4.2594 -0.52795,-1.2072 -1.3888,-3.255 -1.9123,-4.5497 -0.52345,-1.2946 -1.3451,-3.4165 -1.8259,-4.7144 -0.48086,-1.298 -1.2532,-3.4915 -1.7161,-4.8759 -0.46293,-1.3832 -1.1725,-3.6127 -1.5771,-4.9533 -0.40576,-1.3406 -1.0391,-3.5645 -1.4078,-4.942 -0.36877,-1.3776 -0.92137,-3.5633 -1.2262,-4.8557 -0.30488,-1.2935 -0.81265,-3.6082 -1.1265,-5.1448 -0.31498,-1.5356 -0.74653,-3.8022 -0.9595,-5.0362 -0.21297,-1.233 -0.5369,-3.2776 -0.71961,-4.5408 -0.18158,-1.2644 -0.40913,-2.9536 -0.50327,-3.755 -0.0942,-0.80144 -0.22081,-2.1634 -0.28023,-3.0264 -0.0605,-0.86309 -0.16926,-2.9311 -0.24099,-4.5957 -0.0829,-1.9134 -0.10761,-5.0047 -0.0673,-8.4067 0.0359,-2.9591 0.14235,-6.5661 0.23762,-8.0144 0.0953,-1.4493 0.25108,-3.5173 0.34635,-4.5957 0.0953,-1.0794 0.27349,-2.8696 0.39679,-3.9792 0.12217,-1.1097 0.34972,-2.9512 0.5044,-4.0913 0.1558,-1.1411 0.45844,-3.1587 0.67254,-4.4836 0.2141,-1.326 0.59295,-3.4691 0.8418,-4.7638 0.24884,-1.2946 0.70617,-3.4849 1.0166,-4.868 0.30938,-1.3832 0.83394,-3.5768 1.1646,-4.8759 0.33067,-1.2991 0.9068,-3.4345 1.2801,-4.7459 0.37327,-1.3114 1.0099,-3.4266 1.4157,-4.7021 0.40576,-1.2744 1.1074,-3.3784 1.5603,-4.6763 0.45173,-1.2991 1.2083,-3.3693 1.6814,-4.6023 0.47301,-1.233 1.215,-3.0992 1.6488,-4.1473 0.43379,-1.048 1.1669,-2.7629 1.6275,-3.811 0.4618,-1.048 1.437,-3.1609 2.1678,-4.6942 0.72972,-1.5334 1.956,-3.9804 2.7226,-5.4364 0.76782,-1.456 1.8349,-3.43 2.3718,-4.385 0.53579,-0.95613 1.4,-2.4559 1.919,-3.3347 0.51897,-0.87877 0.95836,-1.5973 0.97741,-1.5973 z m 325.32,46.435 c 0.0381,0.037 0.0415,0.13451 0.008,0.21521 -0.0359,0.0897 -0.0617,0.0628 -0.0673,-0.0684 -0.004,-0.1177 0.0214,-0.18382 0.0583,-0.14685 z m 0.27686,1.1467 c 0.11652,0.43155 0.41922,1.6926 0.67142,2.8022 0.25331,1.1097 0.6602,3.0006 0.90456,4.2034 0.24323,1.2016 0.64228,3.346 0.88551,4.7638 0.24323,1.4179 0.56605,3.4355 0.71737,4.4836 0.15141,1.048 0.37661,2.7373 0.49991,3.755 0.12439,1.0166 0.32843,2.8829 0.45509,4.1473 0.1256,1.2632 0.30377,3.3818 0.39456,4.7078 0.0907,1.3249 0.22417,3.8223 0.29479,5.5484 0.0784,1.9212 0.10423,5.1819 0.0661,8.4067 -0.0347,2.8976 -0.14233,6.5034 -0.23874,8.0144 -0.0964,1.5098 -0.2522,3.6284 -0.34636,4.7078 -0.0942,1.0783 -0.29704,3.0859 -0.4506,4.46 -0.15362,1.3742 -0.43267,3.5679 -0.61986,4.8759 -0.18708,1.307 -0.51448,3.4008 -0.72745,4.6529 -0.2141,1.2509 -0.61762,3.42 -0.89896,4.8199 -0.28135,1.3989 -0.68487,3.301 -0.89897,4.2257 -0.21297,0.92474 -0.7353,3.0432 -1.1601,4.7078 -0.42594,1.6645 -1.0559,3.9848 -1.4011,5.1561 -0.34635,1.1713 -0.90903,3.0119 -1.2532,4.0913 -0.343,1.0783 -0.99312,3.0208 -1.4437,4.3154 -0.4506,1.2946 -1.2464,3.4635 -1.7676,4.8198 -0.52235,1.3563 -1.3384,3.3986 -1.8136,4.5396 -0.47638,1.14 -1.4011,3.2585 -2.0557,4.7078 -0.6546,1.4482 -1.8573,3.9703 -2.6722,5.6045 -0.81489,1.6331 -1.9448,3.8278 -2.5119,4.8759 -0.56716,1.048 -1.6074,2.9065 -2.3113,4.1306 -0.7028,1.224 -1.7643,3.0151 -2.3573,3.9792 -0.59407,0.9651 -1.6309,2.6117 -2.3057,3.6596 -0.67364,1.048 -1.8719,2.8416 -2.6621,3.9858 -0.7891,1.1444 -2.0781,2.9603 -2.8627,4.0352 -0.78462,1.0749 -2.1118,2.8369 -2.9514,3.9165 -0.83843,1.0783 -2.2507,2.8438 -3.1397,3.9231 -0.88885,1.0783 -2.3,2.7428 -3.1373,3.699 -0.83619,0.955 -2.3539,2.6442 -3.3728,3.7538 -1.0178,1.1086 -3.0869,3.2528 -4.5979,4.7638 -1.5121,1.511 -3.6552,3.579 -4.7638,4.5969 -1.1097,1.0178 -2.6218,2.3841 -3.3615,3.0377 -0.73979,0.65235 -2.3067,1.9896 -3.4836,2.9704 -1.1758,0.97966 -3.1171,2.5456 -4.3154,3.4782 -1.1971,0.93371 -3.1093,2.3762 -4.2505,3.2068 -1.14,0.82946 -2.9311,2.1007 -3.9792,2.8236 -1.048,0.72297 -2.8639,1.9335 -4.0352,2.6902 -1.1713,0.7566 -3.2393,2.0456 -4.5957,2.8649 -1.3563,0.81826 -3.727,2.1914 -5.2682,3.051 -1.5412,0.85859 -4.4914,2.4055 -6.5572,3.4367 -2.0658,1.0301 -4.8467,2.3618 -6.1806,2.9581 -1.3339,0.59631 -3.3268,1.4594 -4.4275,1.9178 -1.1007,0.45846 -3.0107,1.2229 -4.2437,1.6982 -1.233,0.47527 -3.3538,1.2576 -4.7134,1.7374 -1.3596,0.47975 -3.4534,1.1837 -4.6517,1.5648 -1.1994,0.3811 -3.4726,1.0637 -5.0519,1.5166 -1.5782,0.45397 -4.1183,1.1332 -5.6438,1.511 -1.5256,0.37776 -2.791,0.6692 -2.8123,0.64789 -0.0224,-0.0224 1.0043,-0.38222 2.2811,-0.80144 1.2767,-0.4181 3.4994,-1.1882 4.9386,-1.7094 1.4392,-0.52233 3.886,-1.4583 5.4363,-2.0803 1.5502,-0.62323 3.9792,-1.6477 5.397,-2.2777 1.4179,-0.62994 3.4109,-1.539 4.4275,-2.021 1.0166,-0.48198 2.8337,-1.3787 4.0352,-1.993 1.2027,-0.61425 3.069,-1.595 4.1473,-2.1801 1.0794,-0.5851 2.6678,-1.4684 3.5308,-1.9627 0.86309,-0.49431 2.3986,-1.4 3.4131,-2.012 1.0133,-0.612 2.754,-1.6926 3.8671,-2.4011 1.113,-0.7084 3.1083,-2.0299 4.4332,-2.9379 1.326,-0.90679 3.2673,-2.2732 4.3154,-3.0353 1.048,-0.76333 2.9143,-2.1712 4.1473,-3.1296 1.233,-0.95837 2.9232,-2.299 3.755,-2.9805 0.83283,-0.68038 2.0434,-1.6903 2.6902,-2.244 0.64788,-0.55373 2.0602,-1.7923 3.1385,-2.7518 1.0794,-0.95949 2.4156,-2.1184 2.9704,-2.5746 0.55485,-0.45733 1.715,-1.437 2.5781,-2.1769 0.86309,-0.7409 2.3001,-2.0041 3.1934,-2.8079 0.89337,-0.80368 2.4817,-2.2755 3.5308,-3.2685 1.048,-0.99423 2.9413,-2.8605 4.2068,-4.1473 1.2644,-1.2879 3.1318,-3.2484 4.1485,-4.358 1.0155,-1.1097 2.4817,-2.7496 3.255,-3.6429 0.77455,-0.89448 2.0131,-2.3573 2.7528,-3.2506 0.73979,-0.89448 1.8237,-2.2305 2.4099,-2.9704 0.5851,-0.73979 1.7452,-2.2531 2.5781,-3.3627 0.83283,-1.1097 2.0378,-2.7484 2.6778,-3.6429 0.64004,-0.89335 1.9257,-2.7597 2.8561,-4.1473 0.93147,-1.3865 2.3527,-3.5812 3.1575,-4.8759 0.80594,-1.2946 2.0926,-3.4389 2.8605,-4.7638 0.76782,-1.326 1.9795,-3.4949 2.6924,-4.8198 0.71288,-1.326 1.8002,-3.4187 2.4156,-4.6517 0.61536,-1.233 1.5984,-3.2752 2.1858,-4.5396 0.58621,-1.2644 1.4045,-3.079 1.8192,-4.0352 0.41362,-0.95613 1.1186,-2.6454 1.567,-3.755 0.44949,-1.1097 1.2016,-3.0399 1.6724,-4.2886 0.47077,-1.2487 1.3114,-3.6193 1.8674,-5.2682 0.55708,-1.6488 1.3114,-3.9814 1.6757,-5.1829 0.36542,-1.2027 0.91465,-3.0938 1.2218,-4.2034 0.30601,-1.1097 0.78576,-2.9323 1.0671,-4.051 0.28023,-1.1187 0.75997,-3.1621 1.0648,-4.5396 0.30488,-1.3787 0.7073,-3.2887 0.89224,-4.2437 0.18608,-0.95613 0.49096,-2.6206 0.67815,-3.699 0.18708,-1.0794 0.46628,-2.7944 0.61873,-3.811 0.15362,-1.0178 0.4293,-3.0601 0.61312,-4.5396 0.18386,-1.4807 0.43715,-3.801 0.56382,-5.1561 0.12559,-1.3563 0.30264,-3.6014 0.39344,-4.988 0.0897,-1.3877 0.22192,-4.2874 0.29254,-6.4452 0.0728,-2.2351 0.0976,-5.4184 0.0561,-7.3979 -0.0403,-1.9111 -0.12217,-4.4836 -0.18165,-5.7166 -0.0605,-1.233 -0.16027,-2.948 -0.22194,-3.811 -0.0617,-0.86309 -0.2152,-2.6789 -0.33963,-4.0352 -0.12439,-1.3563 -0.32617,-3.2988 -0.44836,-4.3154 -0.12217,-1.0178 -0.3228,-2.5815 -0.44723,-3.4748 -0.12338,-0.89447 -0.37663,-2.5746 -0.56158,-3.7348 -0.18607,-1.1612 -0.51224,-3.05 -0.72632,-4.1977 -0.21297,-1.1489 -0.38336,-2.142 -0.37776,-2.2059 0.006,-0.065 0.10544,0.23539 0.22194,0.66693 z m -336.55,75.189 c 0.0381,0.0369 0.0415,0.13447 0.009,0.21521 -0.0359,0.0897 -0.0616,0.0627 -0.0673,-0.0683 -0.004,-0.11774 0.0213,-0.18386 0.0583,-0.14677 z m 311.47,37.518 c 0.0268,0 -0.16814,0.4663 -0.43379,1.0368 -0.26454,0.57053 -0.94939,1.9694 -1.521,3.1105 -0.57166,1.1399 -1.5681,3.0579 -2.216,4.2594 -0.64675,1.2016 -1.6824,3.068 -2.3013,4.1473 -0.61875,1.0783 -1.5536,2.6678 -2.0781,3.5308 -0.52459,0.86309 -1.5311,2.4773 -2.2362,3.5869 -0.70504,1.1097 -1.9918,3.051 -2.8583,4.3154 -0.86645,1.2632 -2.1769,3.1228 -2.9109,4.1316 -0.73531,1.0088 -2.021,2.7238 -2.8595,3.811 -0.83731,1.0873 -2.1823,2.7843 -2.9883,3.7707 -0.80594,0.98639 -2.1184,2.55 -2.9155,3.4748 -0.79807,0.92473 -2.1152,2.4121 -2.9256,3.3066 -0.81152,0.89335 -2.3684,2.5579 -3.459,3.699 -1.0906,1.1399 -3.1284,3.1756 -4.5283,4.5229 -1.4,1.3473 -3.125,2.9131 -3.8346,3.4792 -0.70841,0.56719 -2.0198,1.5883 -2.9143,2.271 -0.89335,0.68151 -2.5545,1.91 -3.6911,2.7282 -1.1355,0.81938 -3.1284,2.2059 -4.4275,3.0837 -1.2991,0.87767 -3.0679,2.04 -3.931,2.5837 -0.86309,0.54363 -2.4021,1.4908 -3.4187,2.1051 -1.0166,0.61425 -2.7575,1.6309 -3.8671,2.2585 -1.1097,0.62881 -2.875,1.6018 -3.9231,2.1644 -1.048,0.56158 -3.3425,1.7262 -5.1001,2.5869 -1.7576,0.86198 -4.2201,2.0243 -5.4744,2.5837 -1.2532,0.56044 -2.3124,1.0166 -2.3539,1.0155 -0.0403,-10e-4 1.2879,-0.69946 2.9524,-1.5502 1.6645,-0.85188 3.959,-2.068 5.1001,-2.7024 1.1411,-0.63441 3.0579,-1.7351 4.2594,-2.4468 1.2027,-0.71066 2.9928,-1.7968 3.9792,-2.4134 0.98639,-0.61538 2.8337,-1.8136 4.1058,-2.6621 1.2711,-0.84851 3.0119,-2.0356 3.8671,-2.6385 0.85525,-0.60191 2.2362,-1.5973 3.068,-2.2126 0.83283,-0.61536 2.2956,-1.7262 3.2506,-2.4694 0.95613,-0.74426 2.4188,-1.9066 3.2506,-2.5837 0.83283,-0.67701 2.0176,-1.6612 2.6341,-2.1858 0.61649,-0.52458 1.9044,-1.6421 2.8627,-2.4839 0.95837,-0.8418 2.5724,-2.3035 3.5869,-3.2484 1.0144,-0.94605 3.0308,-2.9099 4.4792,-4.3648 1.4493,-1.456 3.4433,-3.5264 4.4332,-4.6013 0.98863,-1.0749 2.3551,-2.5859 3.0353,-3.356 0.68038,-0.77118 2.0154,-2.3349 2.9659,-3.4748 0.95052,-1.1411 2.3718,-2.892 3.1564,-3.8907 0.78463,-0.99984 2.1511,-2.791 3.0353,-3.9792 0.88438,-1.1893 2.2059,-3.0198 2.9379,-4.0677 0.73084,-1.048 1.9436,-2.8393 2.6936,-3.9792 0.74989,-1.1411 1.9425,-3.0075 2.6498,-4.1473 0.70727,-1.1411 1.8674,-3.0825 2.5781,-4.3154 0.71177,-1.233 1.725,-3.0298 2.2519,-3.9927 0.52682,-0.96397 1.1904,-2.2116 1.4728,-2.7742 0.28248,-0.56268 0.53468,-1.0234 0.56157,-1.0234 z m -293.21,27.014 c 0.17373,0.21408 1.1052,1.3742 2.068,2.5781 0.96397,1.205 2.5321,3.0982 3.4836,4.2078 0.95276,1.1097 2.4392,2.7988 3.3022,3.755 0.86422,0.955 2.5746,2.7742 3.8022,4.0419 1.2274,1.2677 3.1149,3.1599 4.1933,4.2046 1.0794,1.0436 2.5938,2.4783 3.3671,3.1867 0.77229,0.70953 2.1845,1.9716 3.1385,2.8067 0.95276,0.83396 2.3382,2.0233 3.078,2.642 0.73979,0.61873 2.2025,1.8058 3.2506,2.6385 1.048,0.83283 2.8135,2.1946 3.9231,3.0264 1.1097,0.8317 2.875,2.1208 3.9231,2.8639 1.048,0.74316 3.2427,2.2339 4.8759,3.3111 1.6343,1.0783 4.358,2.7934 6.0528,3.8098 1.6959,1.0178 4.2427,2.4896 5.6605,3.272 1.4179,0.78239 4.0161,2.1454 5.7726,3.0286 1.7576,0.88327 4.0778,2.012 5.1561,2.5075 1.0794,0.49543 2.5164,1.2128 3.1946,1.5917 0.67814,0.37998 2.4694,1.3406 3.9792,2.1331 1.5098,0.7936 3.9568,2.0176 5.4364,2.7216 1.4796,0.7028 3.6744,1.7105 4.8759,2.2374 1.2016,0.52793 2.9424,1.2711 3.8671,1.6522 0.92474,0.38224 2.4625,0.99873 3.4187,1.3697 0.95613,0.37216 3.0488,1.1467 4.6517,1.7206 1.6029,0.57391 2.8672,1.0469 2.8089,1.0492 -0.0572,0.004 -0.7891,-0.17478 -1.6253,-0.39455 -0.83619,-0.2197 -2.1499,-0.57726 -2.921,-0.7936 -0.77005,-0.21633 -2.4603,-0.71513 -3.755,-1.1086 -1.2946,-0.39345 -3.4635,-1.0895 -4.8199,-1.548 -1.3563,-0.45733 -3.5756,-1.2464 -4.9319,-1.7531 -1.3563,-0.50666 -3.2484,-1.2386 -4.2034,-1.6264 -0.95613,-0.38895 -2.4694,-1.02 -3.3627,-1.4034 -0.89447,-0.38334 -2.4065,-1.0492 -3.3627,-1.4807 -0.95613,-0.43154 -3.0992,-1.4538 -4.7638,-2.272 -1.6645,-0.81826 -3.9703,-1.9963 -5.1237,-2.6162 -1.1534,-0.62099 -2.8438,-1.5536 -3.755,-2.0737 -0.91129,-0.51898 -2.4896,-1.446 -3.5072,-2.0591 -1.0166,-0.61313 -2.4795,-1.5098 -3.2506,-1.9929 -0.77005,-0.48199 -2.4603,-1.585 -3.755,-2.4492 -1.2946,-0.86422 -3.4379,-2.3504 -4.7638,-3.3032 -1.3249,-0.95276 -3.2673,-2.3908 -4.3154,-3.1946 -1.048,-0.80368 -2.7125,-2.1184 -3.699,-2.92 -0.98639,-0.80144 -2.6486,-2.1914 -3.6933,-3.0891 -1.0458,-0.89672 -2.7607,-2.4087 -3.811,-3.3593 -1.0514,-0.95053 -3.6788,-3.4984 -5.8399,-5.6627 -2.1612,-2.1634 -4.766,-4.867 -5.7883,-6.0069 -1.0223,-1.1411 -2.5264,-2.8561 -3.3425,-3.811 -0.81602,-0.95613 -2.2956,-2.7462 -3.2865,-3.9792 -0.99087,-1.233 -2.615,-3.3312 -3.6092,-4.663 -0.99423,-1.3316 -1.9201,-2.5926 -2.0579,-2.8022 l -0.252,-0.38304 z m 68.909,49.404 c 1.1994,0.59857 2.1666,1.1018 2.1511,1.1186 -0.0167,0.0161 -0.54587,-0.19615 -1.1747,-0.47414 -0.62883,-0.27686 -1.5973,-0.75997 -2.1499,-1.0749 -0.55372,-0.31498 -1.0066,-0.59184 -1.0066,-0.61538 0,-0.0236 0.98078,0.44725 2.1801,1.0458 z m 135.07,9.0131 c 0.0617,-10e-4 -0.15907,0.12217 -0.49207,0.27238 -0.33179,0.1514 -1.6937,0.6983 -3.0264,1.2162 -1.3316,0.51785 -3.5566,1.344 -4.9442,1.8371 -1.3865,0.49207 -3.5812,1.233 -4.8759,1.6444 -1.2946,0.41137 -3.4635,1.0671 -4.8199,1.4572 -1.3563,0.38895 -3.6766,1.0133 -5.1561,1.3865 -1.4796,0.37439 -3.5982,0.87991 -4.7078,1.1254 -1.1097,0.24547 -3.051,0.649 -4.3154,0.89672 -1.2632,0.24884 -3.357,0.6277 -4.6517,0.84291 -1.2946,0.21521 -3.2619,0.51898 -4.3715,0.67591 -1.1097,0.15684 -2.875,0.38334 -3.9231,0.50551 -1.048,0.12096 -2.7125,0.29703 -3.699,0.3912 -0.98639,0.0941 -2.8772,0.24771 -4.2034,0.34075 -1.3249,0.0919 -3.5701,0.2197 -4.988,0.28246 -1.4168,0.0627 -2.8797,0.0885 -3.2506,0.0572 -0.3699,-0.0302 -1.4034,-0.10765 -2.2978,-0.17156 -0.89335,-0.0639 -2.4571,-0.19172 -3.4748,-0.28359 -1.0166,-0.0919 -2.9335,-0.29478 -4.2594,-0.44947 -1.3249,-0.15583 -3.5947,-0.45956 -5.044,-0.67703 -1.4482,-0.21745 -3.7437,-0.59518 -5.1001,-0.84067 -1.3563,-0.24547 -3.55,-0.67365 -4.8759,-0.95163 -1.3249,-0.2791 -3.4433,-0.75661 -4.7078,-1.0615 -1.2632,-0.30488 -3.4468,-0.86422 -4.8501,-1.2431 -1.4045,-0.37773 -2.5321,-0.70727 -2.5075,-0.73305 0.0258,-0.0246 1.048,0.13346 2.2732,0.35195 1.224,0.21857 3.2349,0.54813 4.4679,0.73084 1.233,0.18265 3.2506,0.45844 4.4836,0.61313 1.233,0.15362 3.2764,0.3811 4.5396,0.50551 1.2644,0.12338 3.3828,0.30153 4.7078,0.39568 1.326,0.0931 3.5957,0.2197 5.044,0.28022 1.4493,0.0605 6.6951,0.11088 11.657,0.11088 4.9634,0 10.183,-0.0494 11.601,-0.11088 1.4179,-0.0617 3.6631,-0.18708 4.988,-0.27909 1.326,-0.0929 3.6967,-0.29704 5.2682,-0.45397 1.5726,-0.15684 3.8167,-0.41025 4.988,-0.56157 1.1713,-0.15241 2.9625,-0.40463 3.9792,-0.56269 1.0166,-0.15684 2.9849,-0.48646 4.3715,-0.73082 1.3877,-0.24549 3.7068,-0.69719 5.1561,-1.0054 1.4493,-0.30824 4.0465,-0.90792 5.7726,-1.3339 1.7262,-0.42594 4.2235,-1.0817 5.5484,-1.4583 1.3249,-0.3755 3.5195,-1.0324 4.8759,-1.4572 1.3563,-0.42594 2.9704,-0.9494 3.5869,-1.1635 0.61649,-0.21408 1.1713,-0.39007 1.233,-0.39118 z"
       id="container" /><path
       stroke-miterlimit="2"
       d="m 390.44,330.32 c -4.032,0 -7.3444,0.64744 -10.008,1.7994 -2.664,1.224 -4.6079,2.8808 -5.9039,4.8968 -1.296,2.016 -1.9435,4.2469 -1.9435,6.6949 0,3.024 0.71966,5.4725 2.3037,7.2725 1.58404,1.8 3.4558,3.0964 5.6878,3.9604 2.232,0.864 5.1839,1.7998 8.9279,2.6638 3.24,0.79199 5.8328,1.5116 7.7768,2.2316 1.872,0.71999 3.5274,1.8 4.8234,3.096 1.296,1.368 1.9449,3.1677 1.9449,5.3997 0,2.952 -1.2243,5.3285 -3.6723,7.1285 -2.448,1.872 -6.1208,2.7359 -10.873,2.7359 -3.312,0 -6.4802,-0.57541 -9.5042,-1.7274 -3.024,-1.15199 -5.3991,-2.7367 -7.1271,-4.6087 l -1.6568,2.7359 c 1.872,2.016 4.4648,3.6729 7.7768,4.9689 3.312,1.296 6.8393,1.8715 10.583,1.8715 3.96,0 7.3444,-0.57541 10.08,-1.7994 2.736,-1.152 4.752,-2.8088 6.048,-4.8248 1.296,-2.016 2.0155,-4.2483 2.0155,-6.6963 0,-2.952 -0.79169,-5.327 -2.3757,-7.055 -1.58401,-1.728 -3.4558,-3.0964 -5.6158,-3.9604 -2.232,-0.864 -5.1839,-1.7278 -8.8559,-2.6638 -3.312,-0.79201 -5.9768,-1.5837 -7.8488,-2.3037 -1.944,-0.72001 -3.5274,-1.728 -4.8234,-3.096 -1.296,-1.296 -1.9435,-3.0971 -1.9435,-5.4011 0,-2.952 1.1522,-5.3992 3.6002,-7.2711 2.376,-1.872 5.9032,-2.8079 10.583,-2.8079 2.304,0 4.6805,0.35909 7.1285,1.0791 2.448,0.71999 4.6803,1.8 6.6963,3.168 l 1.3672,-2.952 c -2.016,-1.368 -4.3204,-2.4481 -6.9844,-3.3121 -2.736,-0.792 -5.4716,-1.2232 -8.2076,-1.2232 z m 61.147,0 c -4.968,0 -9.4325,1.1522 -13.393,3.3842 -4.032,2.232 -7.1281,5.256 -9.4321,9.144 -2.304,3.888 -3.3842,8.279 -3.3842,13.031 0,4.824 1.0802,9.1444 3.3842,13.032 2.304,3.888 5.4001,6.984 9.4321,9.216 3.96,2.232 8.4245,3.3121 13.393,3.3121 4.896,0 9.3591,-1.0801 13.391,-3.3121 3.96,-2.16 7.0561,-5.256 9.3601,-9.144 2.304,-3.888 3.4562,-8.2084 3.4562,-13.104 0,-4.824 -1.1522,-9.215 -3.4562,-13.103 -2.304,-3.888 -5.4001,-6.912 -9.3601,-9.144 -4.032,-2.16 -8.4952,-3.3121 -13.391,-3.3121 z m 48.943,0.36017 v 50.399 h 32.689 v -3.3121 h -29.017 v -47.087 z m 67.089,0 -23.185,50.399 h 3.9604 l 21.024,-46.368 21.096,46.368 h 3.9604 l -23.183,-50.399 z m 46.005,0 v 3.3121 h 18.072 c 5.328,0 9.432,1.2228 12.312,3.5989 2.808,2.376 4.2486,5.7604 4.2486,10.08 0,4.392 -1.4405,7.7764 -4.2486,10.152 -2.88,2.376 -6.984,3.5282 -12.312,3.5282 h -18.072 v 19.727 h 3.6723 v -16.487 h 14.4 c 1.44,0 3.0968,-0.0722 4.8968,-0.36016 l 12.024,16.847 h 4.1751 l -12.6,-17.64 c 3.744,-1.08 6.6972,-2.9518 8.7132,-5.6878 2.016,-2.736 3.096,-6.0484 3.096,-10.08 0,-5.256 -1.8011,-9.4321 -5.4011,-12.456 -3.6,-3.024 -8.5678,-4.5353 -14.904,-4.5353 z m -162.04,3.024 c 4.176,0 7.9916,1.0079 11.448,2.8799 3.384,1.944 6.0475,4.6075 8.0635,7.9915 1.944,3.384 2.952,7.1276 2.952,11.304 0,4.176 -1.008,7.993 -2.952,11.377 -2.016,3.384 -4.6795,6.0474 -8.0635,7.9194 -3.456,1.944 -7.2716,2.8799 -11.448,2.8799 -4.248,0 -8.0637,-0.93592 -11.52,-2.8799 -3.456,-1.872 -6.1209,-4.5354 -8.0649,-7.9194 -2.016,-3.384 -2.952,-7.201 -2.952,-11.377 0,-4.176 0.93594,-7.9196 2.952,-11.304 1.944,-3.384 4.6089,-6.0475 8.0649,-7.9915 3.456,-1.872 7.2717,-2.8799 11.52,-2.8799 z m -60.793,52.847 c -5.04,0 -9.5766,1.1521 -13.609,3.3121 -4.032,2.232 -7.1281,5.256 -9.4321,9.144 -2.304,3.888 -3.3828,8.2804 -3.3828,13.104 0,4.896 1.0788,9.2164 3.3828,13.104 2.304,3.888 5.4001,6.984 9.4321,9.144 4.032,2.232 8.4966,3.3121 13.537,3.3121 3.456,0 6.7683,-0.50475 9.9364,-1.6568 3.168,-1.08 5.8315,-2.6634 8.0635,-4.8234 v -18.86 h -3.5282 v 17.352 c -3.816,3.096 -8.5676,4.6087 -14.328,4.6087 -4.32,0 -8.2077,-0.93593 -11.664,-2.8799 -3.456,-1.944 -6.1929,-4.6088 -8.209,-7.9928 -2.016,-3.384 -2.952,-7.1276 -2.952,-11.304 0,-4.176 0.93595,-7.9196 2.952,-11.304 1.944,-3.384 4.6809,-6.0489 8.1369,-7.9929 3.456,-1.872 7.4158,-2.8799 11.736,-2.8799 3.168,0 6.0478,0.50466 8.6398,1.4407 2.592,0.93599 4.9685,2.4473 7.1285,4.5353 l 2.3037,-2.4477 c -2.232,-2.232 -4.8955,-3.9596 -7.9915,-5.1116 -3.096,-1.152 -6.4805,-1.8008 -10.152,-1.8008 z m 44.087,0.36016 v 3.3121 h 18.072 c 5.328,0 9.432,1.2242 12.312,3.6002 2.808,2.376 4.2485,5.7604 4.2485,10.08 0,4.392 -1.4405,7.7751 -4.2485,10.151 -2.88,2.376 -6.984,3.5282 -12.312,3.5282 h -18.072 v 19.729 h 3.6723 v -16.489 h 14.4 c 1.44,0 3.0968,-0.0722 4.8968,-0.36016 l 12.024,16.849 h 4.1765 l -12.6,-17.64 c 3.744,-1.08 6.6958,-2.9532 8.7118,-5.6892 2.016,-2.736 3.096,-6.047 3.096,-10.079 0,-5.256 -1.7997,-9.4321 -5.3997,-12.456 -3.6,-3.024 -8.5692,-4.5367 -14.905,-4.5367 z m 76.651,0 -23.183,50.401 h 3.959 l 21.025,-46.368 21.096,46.368 h 3.959 l -23.183,-50.401 z m 46.005,0 v 3.3121 h 19.657 c 4.608,0 8.712,0.93589 12.312,2.8079 3.528,1.872 6.2636,4.4647 8.2076,7.7047 1.872,3.312 2.8799,7.1276 2.8799,11.376 0,4.32 -1.0079,8.0636 -2.8799,11.376 -1.944,3.312 -4.6796,5.9048 -8.2076,7.7768 -3.6,1.872 -7.704,2.7359 -12.312,2.7359 h -15.99 v -21.88 h -3.6723 v 25.2 h 19.945 c 5.184,0 9.8634,-1.0801 13.895,-3.2401 4.032,-2.16 7.2002,-5.1119 9.5042,-8.9279 2.232,-3.816 3.3842,-8.1364 3.3842,-13.032 0,-4.824 -1.1521,-9.1443 -3.3842,-12.96 -2.304,-3.816 -5.4722,-6.7679 -9.5042,-8.9999 -4.032,-2.16 -8.7114,-3.2401 -13.895,-3.2401 z m 69.485,0 v 3.3121 h 32.616 v -3.3121 z m 0,23.185 v 3.2401 h 32.616 v -3.2401 z m 0,23.904 v 3.3121 h 32.616 v -3.3121 z"
       style="font-variant-ligatures:none;fill:#d4af37;stroke-width:0;stroke-miterlimit:2"
       id="path129251" /></g></svg>